<mxfile host="www.draw.io" modified="2020-05-21T10:29:52.166Z" agent="5.0 (Macintosh; Intel Mac OS X 10_13_6) AppleWebKit/537.36 (KHTML, like Gecko) Chrome/81.0.4044.138 Safari/537.36" etag="6aElF6lhsz1hit8nR6eJ" version="13.1.3" type="github">
  <diagram id="YHx0XzFwLg9iK7dxzwmQ" name="Page-1">
    <mxGraphModel dx="743" dy="415" grid="1" gridSize="10" guides="1" tooltips="1" connect="1" arrows="1" fold="1" page="1" pageScale="1" pageWidth="827" pageHeight="1169" math="0" shadow="0">
      <root>
        <mxCell id="0" />
        <mxCell id="1" parent="0" />
        <mxCell id="JaR2kYF_nCtYXL50B3zv-1" value="场景按钮类型&amp;nbsp;&lt;span style=&quot;color: rgb(17 , 31 , 44) ; font-family: &amp;#34;helvetica neue&amp;#34; ; font-size: 14px&quot;&gt;Buttontype&lt;/span&gt;&lt;br&gt;CBOH_BUTTONTYPE_3CH" style="rounded=1;whiteSpace=wrap;html=1;" vertex="1" parent="1">
          <mxGeometry x="270" y="130" width="170" height="60" as="geometry" />
        </mxCell>
        <mxCell id="JaR2kYF_nCtYXL50B3zv-2" value="场景按钮&amp;nbsp;&lt;span style=&quot;color: rgb(17 , 31 , 44) ; font-family: &amp;#34;helvetica neue&amp;#34; ; font-size: 14px&quot;&gt;Button&lt;/span&gt;&lt;br&gt;CBOH_BUTTON_3CH" style="rounded=1;whiteSpace=wrap;html=1;" vertex="1" parent="1">
          <mxGeometry x="230" y="260" width="170" height="60" as="geometry" />
        </mxCell>
        <mxCell id="JaR2kYF_nCtYXL50B3zv-3" value="场景按钮事件&amp;nbsp;&lt;span style=&quot;color: rgb(17 , 31 , 44) ; font-family: &amp;#34;helvetica neue&amp;#34; ; font-size: 14px&quot;&gt;Button&lt;/span&gt;&lt;br&gt;CBOH_BUTTON_3CH" style="rounded=1;whiteSpace=wrap;html=1;" vertex="1" parent="1">
          <mxGeometry x="450" y="240" width="170" height="60" as="geometry" />
        </mxCell>
        <mxCell id="JaR2kYF_nCtYXL50B3zv-4" value="场景分组&amp;nbsp;&lt;span style=&quot;color: rgb(17 , 31 , 44) ; font-family: &amp;#34;helvetica neue&amp;#34; ; font-size: 14px&quot;&gt;Screengroup&lt;/span&gt;&lt;br&gt;CBOH_SCREENGROUP_3CH" style="rounded=1;whiteSpace=wrap;html=1;" vertex="1" parent="1">
          <mxGeometry x="310" y="370" width="180" height="60" as="geometry" />
        </mxCell>
        <mxCell id="JaR2kYF_nCtYXL50B3zv-5" value="场景&amp;nbsp;&lt;span style=&quot;color: rgb(17 , 31 , 44) ; font-family: &amp;#34;helvetica neue&amp;#34; ; font-size: 14px&quot;&gt;Screen&lt;/span&gt;&lt;br&gt;CBOH_SCREEN_3CH" style="rounded=1;whiteSpace=wrap;html=1;" vertex="1" parent="1">
          <mxGeometry x="70" y="370" width="170" height="60" as="geometry" />
        </mxCell>
        <mxCell id="JaR2kYF_nCtYXL50B3zv-6" value="台位状态 &lt;font color=&quot;#111f2c&quot; face=&quot;helvetica neue&quot;&gt;&lt;span style=&quot;font-size: 14px&quot;&gt;Storetables&lt;/span&gt;&lt;/font&gt;&lt;br&gt;CBOH_STORETABLES_3CH" style="rounded=1;whiteSpace=wrap;html=1;" vertex="1" parent="1">
          <mxGeometry x="200" y="480" width="180" height="60" as="geometry" />
        </mxCell>
        <mxCell id="JaR2kYF_nCtYXL50B3zv-7" value="分配门店 StoreGroup&lt;br&gt;CBOH_STOREGROUP_3CH" style="rounded=1;whiteSpace=wrap;html=1;" vertex="1" parent="1">
          <mxGeometry x="430" y="480" width="180" height="60" as="geometry" />
        </mxCell>
        <mxCell id="JaR2kYF_nCtYXL50B3zv-8" value="1" style="endArrow=open;html=1;endSize=12;startArrow=diamondThin;startSize=14;startFill=1;edgeStyle=orthogonalEdgeStyle;align=left;verticalAlign=bottom;entryX=0.5;entryY=0;entryDx=0;entryDy=0;exitX=0.25;exitY=1;exitDx=0;exitDy=0;" edge="1" parent="1" source="JaR2kYF_nCtYXL50B3zv-4" target="JaR2kYF_nCtYXL50B3zv-6">
          <mxGeometry x="-0.5652" y="-15" relative="1" as="geometry">
            <mxPoint x="330" y="430" as="sourcePoint" />
            <mxPoint x="490" y="430" as="targetPoint" />
            <Array as="points">
              <mxPoint x="355" y="455" />
              <mxPoint x="290" y="455" />
            </Array>
            <mxPoint x="-15" y="15" as="offset" />
          </mxGeometry>
        </mxCell>
        <mxCell id="JaR2kYF_nCtYXL50B3zv-10" value="1" style="endArrow=open;html=1;endSize=12;startArrow=diamondThin;startSize=14;startFill=1;edgeStyle=orthogonalEdgeStyle;align=left;verticalAlign=bottom;entryX=0.5;entryY=0;entryDx=0;entryDy=0;exitX=0.722;exitY=1;exitDx=0;exitDy=0;exitPerimeter=0;" edge="1" parent="1" source="JaR2kYF_nCtYXL50B3zv-4" target="JaR2kYF_nCtYXL50B3zv-7">
          <mxGeometry x="-0.6921" y="10" relative="1" as="geometry">
            <mxPoint x="440" y="450" as="sourcePoint" />
            <mxPoint x="615" y="450" as="targetPoint" />
            <mxPoint as="offset" />
          </mxGeometry>
        </mxCell>
      </root>
    </mxGraphModel>
  </diagram>
</mxfile>
